<svg xmlns="http://www.w3.org/2000/svg" viewBox="0 0 747.5 673"><defs><style>.cls-1{fill:#f7db90;}</style></defs><g id="Layer_2" data-name="Layer 2"><g id="Layer_1-2" data-name="Layer 1"><path class="cls-1" d="M177.18,502.46c51.89,52,139.72,68,140.71,67s-5-25-22.95-50-34.93-6-92.81-60-83.84-128-86.83-207,48.9-141,48.9-141c-68.86,60-74.85,149-69.86,217S125.28,450.47,177.18,502.46Z"/><path class="cls-1" d="M214,236c3,17,8,19,11,22s-2,4,26,4,72,38,70,71c-1,17-4,25,13,35,0,0-13.75,5.46-19-4-5-9,10.49-11,2-28-12-19-29-8-29-8s-9,4-17,4.51S251,322,248,322s-10,3-12,3-13-4-14-15c0,0,2,11,17,4,2-9-3-9-3-13,0-15,15-8-1-24-14-14-19-16-29-14-6,1-5-6-2-6,10-11,7-21,0-29-5-5-32-28-75-28,0,0,34,12,38,27s5,19,4,28,1,18,10,26,18,13,18,23-1,11,7,18,39,32,68,39c0,0-44-1-71-23s-40-60-70-63c0,0,21,17,21,48,0,0-10,2-27-12,0,0,0,51,48,71s81,12,86,11c4.75-.95,25.44-12.86,30.36-17.36-1.55,1.68-5.36,6.79-5.36,16.36,0,12,21,19,23,30s3,17,3,33,14,19,14,19-22,0-24-8,8-12,8-17-5-39-43-49c0,0,14,23-4,24s-39,3-55-9c-7-8-20-3-20-3s23,16,25,28c0,0,28-8,61,27,0,0,30,0,25,25a61.72,61.72,0,0,0-9-2c-6-1-3-10-9-14s-4-10-21-14-21,0-35-11c0,0,8,12,15,16s18.29,3,14.65,25c0,0,50.35-10,79.35,101l6-83,21.5,31.5,12.25-12.32L386,541.5,407.5,510l6,83c29-111,79.35-101,79.35-101-3.64-22,7.65-21,14.65-25s15-16,15-16c-14,11-18,7-35,11s-15,10-21,14-3,13-9,14a61.72,61.72,0,0,0-9,2c-5-25,25-25,25-25,33-35,61-27,61-27,2-12,25-28,25-28s-13-5-20,3c-16,12-37,10-55,9s-4-24-4-24c-38,10-43,44-43,49s10,9,8,17-24,8-24,8,14-3,14-19,1-22,3-33,23-18,23-30c0-9.57-3.81-14.68-5.36-16.36,4.92,4.5,25.61,16.41,30.36,17.36,5,1,38,9,86-11s48-71,48-71c-17,14-27,12-27,12,0-31,21-48,21-48-30,3-43,41-70,63s-71,23-71,23c29-7,60-32,68-39s7-8,7-18,9-15,18-23,11-17,10-26,0-13,4-28,38-27,38-27c-43,0-70,23-75,28-7,8-10,18,0,29,3,0,4,7-2,6-10-2-15,0-29,14-16,16-1,9-1,24,0,4-5,4-3,13,15,7,17-4,17-4-1,11-12,15-14,15s-9-3-12-3-15,11-23,10.51-17-4.51-17-4.51-17-11-29,8c-8.49,17,7,19,2,28-5.25,9.46-19,4-19,4,17-10,14-18,13-35-2-33,42-71,70-71s23-1,26-4,8-5,11-22,31-41,31-41,15-17,15-25-6-18-13-29-17-36-20-47-2-57-2-57c-12,14-17,47-17,51s8,68,7,74-9,8-29,20c-14.74,8.85-26.76,29.09-32.06,39.13L480.5,207s7-18,16.19-38,6.81-45,7.81-74,47-95,47-95c-6,2-40,29-71,58s-23,19-22,45-4,67-21,82.81-29,36.19-36,72.19,8,43,12,48,2,16-3,19.06-13,12.94-13,12.94,0-77,3-105c8.71-45.5,20.24-42.27,40.92-101.9C423,181.92,390.5,181,390.5,181s-6.88,36.36-16.75,46.73C363.88,217.36,357,181,357,181s-32.44.92-50.92-49.89C326.76,190.73,338.29,187.5,347,233c3,28,3,105,3,105s-8-9.87-13-12.94S330,311,334,306s19-12,12-48-19-56.37-36-72.19S288,129,289,103s9-16-22-45S202,2,196,0c0,0,46,66,47,95s-1.37,54,7.81,74S267,207,267,207l7.06,14.13c-5.3-10-17.32-30.28-32.06-39.13-20-12-28-14-29-20s7-70,7-74-5-37-17-51c0,0,1,46-2,57s-13,36-20,47-13,21-13,29,15,25,15,25S211,219,214,236ZM354,431c4-5,10.8-39,11-58l1,56s0,11-5,17-7,4-2,12c6,7.69,12.67,9,14.5,9.21v.05l.25,0,.25,0v-.05c1.83-.22,8.52-1.52,14.5-9.21,5-8,3-6-2-12s-5-17-5-17l1-56c.2,19,7,53,11,58,6,15,25,11,12,45a47,47,0,0,1-31.75,22.32A47,47,0,0,1,342,476C329,442,348,446,354,431Z"/><path class="cls-1" d="M306.08,131.11c-.69-2-1.38-4-2.08-6.11C304.67,127.12,305.36,129.15,306.08,131.11Z"/><path class="cls-1" d="M293.47,321.58c5.43-2.64,7.15-10.2,3.86-16.87s-10.37-9.94-15.8-7.29-7.15,10.2-3.86,16.87S288,324.23,293.47,321.58Z"/><path class="cls-1" d="M70.51,344c9,6,20,18,20,18-6-8-6-46-6-46s-.06-3.38-3-4c-49-22-73-53-75-67-1,24,22,57,30,68S61.51,338,70.51,344Z"/><path class="cls-1" d="M133.27,463C86.53,380,93.49,366,0,321c0,0,26.85,25,40.78,53,12.45,25,36,78,59.67,95,27.85,20,56.69,44,82.55,45C183,514,145.21,488,133.27,463Z"/><path class="cls-1" d="M301.62,658.5,301,659A4.58,4.58,0,0,0,301.62,658.5Z"/><path class="cls-1" d="M441.42,131.1c.72-2,1.41-4,2.08-6.1Q442.45,128.17,441.42,131.1Z"/><path class="cls-1" d="M450.17,304.71c-3.29,6.67-1.57,14.23,3.86,16.87s12.5-.62,15.8-7.29,1.57-14.23-3.86-16.87S453.47,298,450.17,304.71Z"/><path class="cls-1" d="M632.2,252.49c-3,79-28.94,153-86.83,207s-74.85,35-92.81,60-23.95,49-22.95,50,88.82-15,140.71-67,77.85-106,82.84-174-1-157-69.86-217C583.3,111.5,635.2,173.49,632.2,252.49Z"/><path class="cls-1" d="M677,344c9-6,26-20,34-31s31-44,30-68c-2,14-26,45-75,67-2.94.62-3,4-3,4s0,38-6,46C657,362,668,350,677,344Z"/><path class="cls-1" d="M614.23,463c-11.94,25-49.73,51-49.73,51,25.86-1,54.7-25,82.55-45,23.72-17,47.22-70,59.67-95,13.93-28,40.78-53,40.78-53C654,366,661,380,614.23,463Z"/><path class="cls-1" d="M445.88,658.5a4.58,4.58,0,0,0,.62.45Z"/><path class="cls-1" d="M458.5,601.76c-7-14,7-27.09,7-27.09-52-3-52,31.1-52,31.1-6-10-11-49.17-11-49.17L386,542l-12.25,19.66L361.5,542,345,556.6s-5,39.14-11,49.17c0,0,0-34.12-52-31.1,0,0,14,13,7,27.09s-28,52.18-28,52.18,29-18.65,55.5-18.86c0,0-9.68,19.23-14.88,23.42,3.53-2.49,21.84-14.7,43.38-15.6,4,4,1,12,5,17.06s8,3,16,13c0,0-3-12,0-18.06s7-8,4-15.05-14-17.06-19-20.07c0,0,18.29,1.45,22.75-10.59,4.46,12,22.75,10.59,22.75,10.59-5,3-16,13-19,20.07s1,9,4,15.05,0,18.06,0,18.06c8-10,12-8,16-13s1-13.05,5-17.06c21.54.9,39.85,13.11,43.38,15.6-5.2-4.19-14.88-23.42-14.88-23.42,26.5.21,55.5,18.86,55.5,18.86S465.5,615.81,458.5,601.76Z"/></g></g></svg>